<svg xmlns="http://www.w3.org/2000/svg" viewBox="0 0 192 192" role="img" aria-label="BARO">
  <rect width="192" height="192" fill="#BFE4F7"/>
  <g fill="none" stroke="#141062" stroke-width="10" stroke-linejoin="round" stroke-linecap="round">
    <polygon points="96,26 161,63 161,129 96,166 31,129 31,63"/>
  </g>
  <g fill="#1E1B80">
    <rect x="63" y="60" width="20" height="72" rx="3"/>
    <path d="M83 60 h28 a24 24 0 0 1 24 24 v1 a24 24 0 0 1 -24 24 h-28 z"/>
    <path d="M83 107 h33 a26 26 0 0 1 26 25 v0 a26 26 0 0 1 -26 25 h-33 z"/>
  </g>
  <g fill="#BFE4F7">
    <path d="M93 74 h17 a11 11 0 0 1 11 11 v0 a11 11 0 0 1 -11 11 h-17 z"/>
    <path d="M93 119 h22 a12 12 0 0 1 12 12 v0 a12 12 0 0 1 -12 12 h-22 z"/>
  </g>
</svg>
